<svg
  xmlns="http://www.w3.org/2000/svg"
  xmlns:xlink="http://www.w3.org/1999/xlink"
  viewBox="0 0 4457.3 2507.23"
>
  <defs>
    <linearGradient
      id="not_found_7"
      x1="2239.61"
      y1="2247.22"
      x2="2405.19"
      y2="2247.22"
      gradientTransform="translate(-492.14 1210.19) rotate(-32.16)"
      gradientUnits="userSpaceOnUse"
    >
      <stop offset="0" stop-color="#e42320" />
      <stop offset="0.37" stop-color="#b02320" />
      <stop offset="1" stop-color="#e8521d" />
    </linearGradient>
    <linearGradient
      id="not_found_44"
      x1="3107.88"
      y1="1466.36"
      x2="3148.25"
      y2="1466.36"
      gradientUnits="userSpaceOnUse"
    >
      <stop offset="0" stop-color="#b53418" />
      <stop offset="1" stop-color="#b21917" />
    </linearGradient>
    <linearGradient
      id="not_found_34"
      x1="3259.32"
      y1="1266.56"
      x2="3408.92"
      y2="1266.56"
      gradientUnits="userSpaceOnUse"
    >
      <stop offset="0" stop-color="#e73f3e" />
      <stop offset="1" stop-color="#eb683b" />
    </linearGradient>
    <linearGradient
      id="not_found_44-2"
      x1="3162.69"
      y1="1266.74"
      x2="2956.57"
      y2="1266.74"
      xlink:href="#not_found_44"
    />
    <linearGradient
      id="not_found_29"
      x1="3120.98"
      y1="1139.28"
      x2="3304.19"
      y2="1139.28"
      gradientUnits="userSpaceOnUse"
    >
      <stop offset="0" stop-color="#f08864" />
      <stop offset="1" stop-color="#ec6969" />
    </linearGradient>
    <linearGradient
      id="not_found_44-3"
      x1="3138.52"
      y1="1130.84"
      x2="3138.52"
      y2="1261.09"
      xlink:href="#not_found_44"
    />
    <linearGradient
      id="not_found_44-4"
      x1="2762.49"
      y1="1342.9"
      x2="2791.59"
      y2="1342.9"
      xlink:href="#not_found_44"
    />
    <linearGradient
      id="not_found_22"
      x1="3127.07"
      y1="814.37"
      x2="3083.73"
      y2="1650.8"
      gradientUnits="userSpaceOnUse"
    >
      <stop offset="0" stop-color="#e8521d" />
      <stop offset="1" stop-color="#e42320" />
    </linearGradient>
    <linearGradient
      id="not_found_34-2"
      x1="2764.14"
      y1="1075.25"
      x2="3115.45"
      y2="1075.25"
      xlink:href="#not_found_34"
    />
    <linearGradient
      id="not_found_29-2"
      x1="3078.69"
      y1="855.35"
      x2="3277.96"
      y2="855.35"
      xlink:href="#not_found_29"
    />
    <linearGradient
      id="not_found_34-3"
      x1="1596.65"
      y1="1267.36"
      x2="1710.04"
      y2="1267.36"
      xlink:href="#not_found_34"
    />
    <linearGradient
      id="not_found_44-5"
      x1="1268.07"
      y1="1267.53"
      x2="1452.35"
      y2="1267.53"
      xlink:href="#not_found_44"
    />
    <linearGradient
      id="not_found_29-3"
      x1="1450.98"
      y1="1138.62"
      x2="1599.83"
      y2="1138.62"
      xlink:href="#not_found_29"
    />
    <linearGradient
      id="not_found_34-4"
      x1="1078.82"
      y1="1073.88"
      x2="1402.57"
      y2="1073.88"
      xlink:href="#not_found_34"
    />
    <linearGradient
      id="not_found_29-4"
      x1="1399.82"
      y1="851.43"
      x2="1566.15"
      y2="851.43"
      xlink:href="#not_found_29"
    />
    <linearGradient
      id="not_found_22-2"
      x1="1427"
      y1="733.98"
      x2="1383.65"
      y2="1570.52"
      xlink:href="#not_found_22"
    />
    <linearGradient
      id="not_found_44-6"
      x1="1922.49"
      y1="1220.57"
      x2="2575.19"
      y2="1220.57"
      xlink:href="#not_found_44"
    />
    <linearGradient
      id="not_found_29-5"
      x1="2019.22"
      y1="815.21"
      x2="2676.29"
      y2="815.21"
      xlink:href="#not_found_29"
    />
    <linearGradient
      id="not_found_22-3"
      x1="1760.69"
      y1="1179.75"
      x2="2738.33"
      y2="1179.75"
      xlink:href="#not_found_22"
    />
    <linearGradient
      id="not_found_67"
      x1="1930.89"
      y1="1173.78"
      x2="2575.06"
      y2="1173.78"
      gradientUnits="userSpaceOnUse"
    >
      <stop offset="0" stop-color="#cacaca" />
      <stop offset="1" stop-color="#cecdce" />
    </linearGradient>
    <linearGradient
      id="not_found_50"
      x1="1930.89"
      y1="1168.45"
      x2="2574.89"
      y2="1168.45"
      gradientUnits="userSpaceOnUse"
    >
      <stop offset="0" stop-color="#f9fcfc" />
      <stop offset="1" stop-color="#d1e8f9" />
    </linearGradient>
    <linearGradient
      id="not_found_71"
      x1="2282.49"
      y1="1208.1"
      x2="2074.21"
      y2="956.42"
      gradientUnits="userSpaceOnUse"
    >
      <stop offset="0" stop-color="#fff" />
      <stop offset="1" stop-color="#cecdce" />
    </linearGradient>
    <linearGradient
      id="not_found_96"
      x1="2392.3"
      y1="1118.53"
      x2="2415.51"
      y2="1078.33"
      gradientUnits="userSpaceOnUse"
    >
      <stop offset="0" stop-color="#6b6b6b" />
      <stop offset="0.17" stop-color="#5f625f" />
      <stop offset="0.33" stop-color="#5a5e5b" />
      <stop offset="0.4" stop-color="#616462" />
      <stop offset="0.79" stop-color="#7f7f80" />
      <stop offset="1" stop-color="#8b898b" />
    </linearGradient>
    <linearGradient
      id="not_found_96-2"
      x1="2104.83"
      y1="1118.53"
      x2="2128.04"
      y2="1078.33"
      xlink:href="#not_found_96"
    />
    <linearGradient
      id="not_found_96-3"
      x1="2140.17"
      y1="1204.3"
      x2="2380.17"
      y2="1204.3"
      xlink:href="#not_found_96"
    />
  </defs>
  <title>vecteezy_error-404-page-not-found-concept-illustration-web-page_7162540 [Converted]</title>
  <g style="isolation: isolate">
    <g id="Ñëîé_1" data-name="Ñëîé 1">
      <rect width="4457.3" height="2507.23" style="fill: #fff" />
      <path
        d="M597.29,1007.29c84.86-142.09,247.53-221.75,410.09-252.8s329.71-21.11,495.12-26.76C1872.7,715.08,2240,622.55,2572,458.29c261.67-129.46,516.2-307.06,808-316.56,308.21-10,611.58,195.46,716.58,485.41,88.13,243.35,41.23,519.54-71.69,752.44-101,208.37-259,395.63-467.67,496-273.69,131.62-597.07,100.1-892.59,30.12s-586.41-175.92-890-185.23c-279-8.55-559.49,83.16-835.64,33.79C446.41,1666.2,518.7,1138.86,597.29,1007.29Z"
        transform="translate(0 0)"
        style="fill: #cecdce; opacity: 0.46"
      />
      <path
        d="M2898.69,2240h0a82.79,82.79,0,0,1-116.31-29.65l-377.7-674.83,73.09-46,444.59,632.77A82.78,82.78,0,0,1,2898.69,2240Z"
        transform="translate(0 0)"
        style="fill: url(#not_found_7)"
      />
      <g style="isolation: isolate">
        <polygon
          points="3145.04 1562.41 3107.88 1510.08 3110.9 1370.31 3148.25 1418.72 3145.04 1562.41"
          style="fill: url(#not_found_44)"
        />
        <polygon
          points="3300.99 1288.99 3259.32 1244.18 3364.26 1244.14 3408.92 1288.91 3300.99 1288.99"
          style="fill: url(#not_found_34)"
        />
        <polygon
          points="2977.05 1289.24 2944.4 1244.3 3118.26 1244.23 3155.89 1289.1 2977.05 1289.24"
          style="fill: url(#not_found_44-2)"
        />
        <polygon
          points="3158.78 1159.92 3120.98 1118.6 3262.34 1118.69 3304.19 1159.96 3158.78 1159.92"
          style="fill: url(#not_found_29)"
        />
        <polygon
          points="3155.89 1289.1 3118.26 1244.23 3120.98 1118.6 3158.78 1159.92 3155.89 1289.1"
          style="fill: url(#not_found_44-3)"
        />
        <polygon
          points="2789.84 1419.39 2762.49 1370.81 2764.14 1266.42 2791.59 1312.05 2789.84 1419.39"
          style="fill: url(#not_found_44-4)"
        />
        <polygon
          points="3277.96 872.25 2977.05 1289.24 3155.89 1289.1 3158.78 1159.92 3304.19 1159.96 3300.99 1288.99 3408.92 1288.91 3405.48 1418.24 3297.78 1418.44 3294.23 1561.95 3145.04 1562.41 3148.25 1418.72 2789.84 1419.39 2791.59 1312.05 3115.45 871.81 3277.96 872.25"
          style="fill: url(#not_found_22)"
        />
        <polygon
          points="2791.59 1312.05 2764.14 1266.42 3078.69 838.45 3115.45 871.81 2791.59 1312.05"
          style="fill: url(#not_found_34-2)"
        />
        <polygon
          points="3115.45 871.81 3078.69 838.45 3236.65 838.93 3277.96 872.25 3115.45 871.81"
          style="fill: url(#not_found_29-2)"
        />
      </g>
      <g style="isolation: isolate">
        <polygon
          points="1599.6 1290.05 1596.65 1244.71 1703.95 1244.66 1710.04 1289.96 1599.6 1290.05"
          style="fill: url(#not_found_34-3)"
        />
        <polygon
          points="1268.07 1290.3 1274.56 1244.83 1452.35 1244.76 1451.08 1290.16 1268.07 1290.3"
          style="fill: url(#not_found_44-5)"
        />
        <polygon
          points="1450.98 1159.48 1452.25 1117.71 1596.86 1117.81 1599.83 1159.53 1450.98 1159.48"
          style="fill: url(#not_found_29-3)"
        />
        <polygon
          points="1078.82 1313.38 1090.71 1267.2 1402.57 834.38 1399.82 868.01 1078.82 1313.38"
          style="fill: url(#not_found_34-4)"
        />
        <polygon
          points="1399.82 868.01 1402.57 834.38 1564.13 834.87 1566.15 868.47 1399.82 868.01"
          style="fill: url(#not_found_29-4)"
        />
        <polygon
          points="1566.15 868.47 1268.07 1290.3 1451.08 1290.16 1450.98 1159.48 1599.83 1159.53 1599.6 1290.05 1710.04 1289.96 1709.57 1420.79 1599.38 1420.99 1599.12 1566.15 1446.44 1566.62 1446.32 1421.28 1079.57 1421.96 1078.82 1313.38 1399.82 868.01 1566.15 868.47"
          style="fill: url(#not_found_22-2)"
        />
      </g>
      <g style="isolation: isolate">
        <path
          d="M2575,1172.52q-.24-7.37-.81-14.66t-1.46-14.47q-.88-7.19-2.08-14.28T2568,1115l-5.59-26c1,4.45,1.82,8.94,2.58,13.46s1.43,9.07,2,13.65,1,9.2,1.4,13.85.62,9.31.77,14a306.92,306.92,0,0,1-20.58,121.5,312,312,0,0,1-401.34,177.9,314.6,314.6,0,0,1-171.89-158.24A308,308,0,0,1,1996,983.05a312.39,312.39,0,0,1,39.48-48.58l-18.75,18.85A324.45,324.45,0,0,0,1945,1062.45a319.71,319.71,0,0,0-18,64.24A323.9,323.9,0,0,0,1953.9,1320,326.91,326.91,0,0,0,2487,1404.58a324.17,324.17,0,0,0,66.46-105A320.79,320.79,0,0,0,2575,1172.52Z"
          transform="translate(0 0)"
          style="fill: url(#not_found_44-6)"
        />
        <path
          d="M2665.88,925.79a469.92,469.92,0,0,0-480.72-234.26,463.44,463.44,0,0,0-147.23,48.69l-18.71,9.91a485.64,485.64,0,0,1,154-50.93,492.17,492.17,0,0,1,503,245.11Z"
          transform="translate(0 0)"
          style="fill: url(#not_found_29-5)"
        />
        <path
          d="M2738.1,1166.83a482.57,482.57,0,0,0-44.55-188.77,489.2,489.2,0,0,0-902.89,32.45,484.18,484.18,0,0,0,17.54,376.82,489.63,489.63,0,0,0,797.18,126.61,486.25,486.25,0,0,0,99.88-156.88A480.63,480.63,0,0,0,2738.1,1166.83Zm-163,9.42a321.07,321.07,0,0,1-21.58,123.3,326.43,326.43,0,0,1-419.75,185.86,329.14,329.14,0,0,1-179.8-165.4,323.33,323.33,0,0,1-11.1-251.88c.78-2,1.57-4,2.35-6.05a320.41,320.41,0,0,1,32.34-61.15,1.28,1.28,0,0,1,.28-.45A330.35,330.35,0,0,1,2008.29,962,327.83,327.83,0,0,1,2545,1046.72a320.37,320.37,0,0,1,29.87,123.58c.06.73.11,1.46.11,2.19.06,1.23.06,2.41.06,3.64Z"
          transform="translate(0 0)"
          style="fill: url(#not_found_22-3)"
        />
      </g>
      <path
        d="M2575.06,1176.13v.12c-4.43,174.14-146.9,313.87-322,313.87-178,0-322.17-144.21-322.17-322.17,0-1.06,0-2.18.06-3.25v-.28a320.1,320.1,0,0,1,46.57-163.49,1.28,1.28,0,0,1,.28-.45A330.35,330.35,0,0,1,2008.29,962,326.9,326.9,0,0,1,2364.2,878.8,329.32,329.32,0,0,1,2545,1046.72a320.37,320.37,0,0,1,29.87,123.58c.06.73.11,1.46.11,2.19C2575.06,1173.72,2575.06,1174.9,2575.06,1176.13Z"
        transform="translate(0 0)"
        style="opacity: 0.25; fill: url(#not_found_67)"
      />
      <path
        d="M2574.89,1170.3c-6.78,171.91-148.25,309.17-321.83,309.17-140,0-259.11-89.23-303.51-213.94a323.75,323.75,0,0,1-4.37-203.45,326.43,326.43,0,0,1,419-183.28A329.32,329.32,0,0,1,2545,1046.72,320.37,320.37,0,0,1,2574.89,1170.3Z"
        transform="translate(0 0)"
        style="opacity: 0.19; fill: url(#not_found_50)"
      />
      <path
        d="M2416.44,977.05c0,178.12-144.38,322.56-322.56,322.56a320.65,320.65,0,0,1-144.33-34.08A321.23,321.23,0,0,1,1931,1164.7v-.28a320.1,320.1,0,0,1,46.57-163.49,1.28,1.28,0,0,1,.28-.45A330.35,330.35,0,0,1,2008.29,962,326.9,326.9,0,0,1,2364.2,878.8a330.8,330.8,0,0,1,42.66,19.84A322.71,322.71,0,0,1,2416.44,977.05Z"
        transform="translate(0 0)"
        style="opacity: 0.63; mix-blend-mode: color-dodge; fill: url(#not_found_71)"
      />
      <circle cx="2403.91" cy="1098.43" r="23.21" style="fill: url(#not_found_96)" />
      <circle cx="2116.43" cy="1098.43" r="23.21" style="fill: url(#not_found_96-2)" />
      <path
        d="M2367,1254.43a13.13,13.13,0,0,1-12.28-8.48,102,102,0,0,0-94.9-65.52,101,101,0,0,0-94.36,64.1,13.13,13.13,0,0,1-24.41-9.68,127.09,127.09,0,0,1,118.77-80.68,128.4,128.4,0,0,1,119.46,82.48,13.12,13.12,0,0,1-7.63,16.92A12.88,12.88,0,0,1,2367,1254.43Z"
        transform="translate(0 0)"
        style="fill: url(#not_found_96-3)"
      />
      <path
        d="M4287.65,1893c36.6-39.48,70.32-83.85,84.4-135.81s4.94-113-34.26-149.87c-59-55.53-158.92-34.72-221.81,16.35s-102.64,124.71-156.46,185.26c-77.37,87-185.32,146.37-300.28,165-89.07,14.44-181.37,5.23-269,26.62s-175.35,87.49-178.6,177.66c-3.55,98.25,98.37,174,196.55,179.07,153.38,7.87,295.32-103.19,429-164.42C4001.67,2117.49,4163.41,2027,4287.65,1893Z"
        transform="translate(0 0)"
        style="fill: #cecdce; opacity: 0.46"
      />
      <path
        d="M694.87,1850.23c151.74,59.48,321.88,46,482.26,17,121.71-22,242.9-52.46,366.57-53.85s253.49,30.13,342.57,115.93,123.56,234.17,55.37,337.35c-46.88,70.95-132.7,109.16-217.48,115.73s-169.26-14.73-249.9-41.71c-187.84-62.84-365.34-157.56-558.64-200.78-105.37-23.56-213.53-31.35-320.49-46.08s-214.61-37-310.33-87-179.22-130.75-213-233.3-9.42-227,73.84-295.75c100.17-82.71,256.77-58.09,288.57,68.81C469.35,1686.84,557.42,1796.34,694.87,1850.23Z"
        transform="translate(0 0)"
        style="fill: #cecdce; opacity: 0.46"
      />
      <path
        d="M1241.48,357.82c-169-41.64-340.34-103.55-512.35-77.18A514.49,514.49,0,0,0,482.56,390.48c-61.47,50.33-112.41,118.59-123.86,197.2s24.82,166.86,97.13,199.76C508.14,811.24,570,803.58,623.67,783s101.86-52.94,152.78-79.6C993.67,589.72,1249.82,584.69,1494.94,590s497.77,17.21,727.62-68.13c39.11-14.52,78.28-32.51,107-62.81,18.2-19.24,67.36-82.9,28.1-110.23-27.82-19.37-118.43,26.05-140.87,30.52a2245.49,2245.49,0,0,1-325,40.3C1673.54,430.67,1453.67,410.12,1241.48,357.82Z"
        transform="translate(0 0)"
        style="fill: #cecdce; opacity: 0.46"
      />
    </g>
  </g>
</svg>
