<?xml version="1.0" encoding="UTF-8" standalone="no"?>
<!-- Created with Inkscape (http://www.inkscape.org/) -->

<svg
  xmlns:dc="http://purl.org/dc/elements/1.1/"
  xmlns:cc="http://creativecommons.org/ns#"
  xmlns:rdf="http://www.w3.org/1999/02/22-rdf-syntax-ns#"
  xmlns:svg="http://www.w3.org/2000/svg"
  xmlns="http://www.w3.org/2000/svg"
  xmlns:sodipodi="http://sodipodi.sourceforge.net/DTD/sodipodi-0.dtd"
  xmlns:inkscape="http://www.inkscape.org/namespaces/inkscape"
  version="1.1"
  id="svg3767"
  width="553"
  height="234"
  viewBox="0 0 553 234"
  sodipodi:docname="logo.svg"
  inkscape:version="0.92.4 (5da689c313, 2019-01-14)"
>
  <metadata id="metadata3773">
    <rdf:RDF>
      <cc:Work rdf:about="">
        <dc:format>image/svg+xml</dc:format>
        <dc:type rdf:resource="http://purl.org/dc/dcmitype/StillImage" />
        <dc:title></dc:title>
      </cc:Work>
    </rdf:RDF>
  </metadata>
  <defs id="defs3771" />
  <sodipodi:namedview
    pagecolor="#ffffff"
    bordercolor="#666666"
    borderopacity="1"
    objecttolerance="10"
    gridtolerance="10"
    guidetolerance="10"
    inkscape:pageopacity="0"
    inkscape:pageshadow="2"
    inkscape:window-width="1536"
    inkscape:window-height="804"
    id="namedview3769"
    showgrid="false"
    inkscape:zoom="1.0271248"
    inkscape:cx="172.9991"
    inkscape:cy="203.96167"
    inkscape:window-x="-8"
    inkscape:window-y="-8"
    inkscape:window-maximized="1"
    inkscape:current-layer="svg3767"
  />
  <path
    style="fill: #333333"
    d="m 442.8551,212.22795 c -0.25921,-0.69259 -0.58418,-19.93426 -0.72217,-42.75926 l -0.25089,-41.5 -5.37021,-0.53909 c -4.24447,-0.42609 -6.47757,-1.11906 -8.35849,-3.30577 -1.30888,-1.52167 -1.46705,-3.67733 -1.46705,-4.71599 0,-1.03866 0.52326,-3.31602 1.83214,-4.83769 1.88092,-2.18671 3.74893,-2.63628 7.9934,-3.06237 l 5.37021,-0.53909 0.5,-43.5 0.5,-43.5 h 50.5 50.5 v 94.5 94.5 l -50.27783,0.25926 c -39.6934,0.20469 -50.37704,-0.006 -50.74911,-1 z m 89.52694,-92.15227 c 0,-73.29729 -0.15733,-81.45339 -1.58179,-82 -2.38037,-0.91344 -73.72397,-0.69966 -75.18104,0.22527 -0.98692,0.62649 -1.2054,8.65259 -1,36.73469 l 0.26283,35.93305 5.85411,0.52037 c 4.81069,0.42762 6.70709,0.89513 8.67595,3.18406 2.29452,3.82071 2.17282,5.83128 0.18254,9.65199 -1.96886,2.28893 -4.0478,2.69559 -8.85849,3.12321 l -5.85411,0.52037 -0.26232,36.75 -0.26232,36.75 h 39.01232 39.01232 z m -65.61284,1.14301 c 0.80345,-1.27519 0.80347,-2.22481 6e-5,-3.5 -0.96384,-1.52984 -3.14802,-1.78464 -17.3619,-2.02533 -16.71965,-0.28313 -18.90362,0.59095 -19.02532,3.69777 -0.10617,2.71035 2.31822,3.95056 18.86544,3.85073 14.36932,-0.0867 16.55687,-0.49183 17.52172,-2.02317 z m -342.19194,30.24987 c -5.65988,-1.20209 -12.52412,-4.68501 -15.5904,-7.91059 -3.81631,-4.01458 -7.34285,-11.92111 -8.6403,-19.37162 -1.61024,-9.24667 -0.76655,-34.586825 1.37382,-41.2629 5.1769,-16.14734 18.46032,-23.76313 38.53429,-22.09286 14.60911,1.21556 24.52615,8.52459 28.57464,21.06001 4.31882,13.372453 4.03909,38.85766 -0.56146,51.15375 -2.79413,7.46799 -9.6072,14.44609 -16.42099,16.81879 -5.80262,2.02058 -21.08005,2.91999 -27.2696,1.60542 z m 19.79942,-16.75142 c 2.15857,-1.07999 4.44326,-3.46889 5.97587,-6.24845 2.2244,-4.03421 2.52083,-5.90448 2.86387,-18.06884 0.23079,-8.18416 -0.0904,-15.847239 -0.80926,-19.31018 -2.12676,-10.24451 -8.9663,-15.36153 -19.21619,-14.37664 -6.27662,0.6031 -9.66063,3.06447 -12.77953,9.295225 -2.14201,4.279163 -2.52267,6.606697 -2.86207,17.499725 -0.61149,19.62603 2.1165,27.99697 10.28309,31.55411 4.33651,1.88887 12.41617,1.7204 16.54422,-0.34495 z m 64.1371,16.74058 c -15.71326,-3.32777 -22.99816,-13.25586 -25.3183,-34.50456 -1.95241,-17.88084 1.42986,-37.15569 7.97557,-45.45109 4.28114,-5.4255 14.10002,-9.90584 23.40186,-10.67823 22.80534,-1.89368 36.19014,7.84374 39.86129,28.999 1.73807,10.01577 0.73605,34.62269 -1.68286,41.32636 -5.01412,13.89596 -14.20474,20.181 -30.48725,20.84883 -5.16013,0.21164 -11.34777,-0.0315 -13.75031,-0.54031 z m 21.12989,-17.4248 c 1.45209,-0.95144 3.67475,-3.83012 4.93926,-6.39706 2.10855,-4.28034 2.29911,-5.99331 2.29911,-20.66717 0,-15.080526 -0.14367,-16.284349 -2.5,-20.948027 -3.00087,-5.939363 -6.27436,-8.510833 -11.77324,-9.248383 -9.98252,-1.33894 -17.13206,3.12297 -19.82006,12.369369 -1.21711,4.186701 -1.50805,8.886141 -1.24708,20.143841 0.31255,13.48246 0.54482,15.04306 2.84038,19.08375 3.56138,6.26881 7.82819,8.34516 16.06074,7.8156 3.89623,-0.25063 7.63298,-1.12459 9.20089,-2.15192 z m 140.47284,17.34772 c -12.25524,-2.8873 -19.78768,-11.48465 -23.34081,-26.64063 -2.41617,-10.3062 -1.522,-35.649335 1.53667,-43.55363 3.27781,-8.47058 7.71149,-13.71461 14.54829,-17.2073 5.67213,-2.89771 6.34429,-3.00366 17.95704,-2.83057 6.63539,0.0989 14.53934,0.78442 17.56434,1.52338 l 5.5,1.34358 v 6.47661 6.47661 l -12.7217,-0.36161 c -12.23073,-0.347654 -12.89359,-0.26087 -17.1758,2.24867 -3.39339,1.98866 -5.12666,3.97991 -7.2783,8.36161 -2.7053,5.509205 -2.8242,6.36277 -2.8242,20.2752 0,13.55414 0.16873,14.85613 2.52704,19.5 1.8949,3.73136 3.64594,5.56064 7,7.31276 4.2145,2.20162 5.20355,2.30282 17.11653,1.75146 14.33229,-0.66334 13.85643,-0.91948 13.85643,7.45851 0,5.95788 -0.56446,6.3293 -11.909,7.83633 -9.68007,1.28592 -16.98135,1.2954 -22.35653,0.029 z M 21.879596,149.32288 c -0.28581,-0.7448 -0.402178,-20.47919 -0.2586,-43.85419 l 0.26105,-42.5 16,-0.32037 c 19.31896,-0.386826 27.40341,0.81484 34.67327,5.15381 9.86349,5.88696 14.57417,15.9521 15.5226,33.16656 1.35913,24.66878 -6.31256,41.49812 -21.45167,47.05839 -6.41303,2.35537 -43.92323,3.44162 -44.74665,1.2958 z m 36.90275,-16.24808 c 3.92954,-1.64187 7.82396,-6.5131 9.6785,-12.10611 1.75493,-5.29263 1.81654,-26.757965 0.091,-31.700015 -1.59745,-4.575135 -7.04328,-9.500215 -11.3984,-10.308435 -1.79926,-0.33391 -6.42138,-0.468609 -10.27138,-0.29933 l -7,0.30778 -0.26706,26.48435 c -0.146883,14.56639 -0.0485,27.05389 0.21861,27.75 0.67723,1.76482 14.64423,1.6703 18.94875,-0.12824 z m 211.073504,16.18623 c -0.27275,-0.71079 -0.37198,-20.4173 -0.23486,-43.79234 l 0.26105,-42.5 h 21 c 25.16811,0 28.68451,0.73424 35.60506,7.43448 10.96144,10.61247 13.49884,35.01874 -0.92135,42.78307 l -4.11851,4.21755 2.55116,6.78245 c 1.40313,3.73035 4.08794,10.76376 5.96624,15.62981 1.8783,4.86605 3.16405,9.25355 2.85723,9.75 -0.90012,1.45642 -17.01948,1.11406 -18.26604,-0.38796 -0.58911,-0.70982 -2.96156,-6.67232 -5.27212,-13.25 -2.31056,-6.57767 -4.63877,-12.5219 -5.17379,-13.2094 -0.63147,-0.81143 -3.72995,-1.25 -8.83127,-1.25 -9.36289,0 -8.79294,-1.02763 -9.15128,16.5 l -0.24533,12 -7.76514,0.29234 c -5.64413,0.21248 -7.90059,-0.0607 -8.26105,-1 z m 42.47321,-47.40465 c 5.07648,-5.68588 4.83179,-15.425969 -0.51381,-20.45282 -2.34428,-2.20449 -3.58787,-2.4675 -13.14361,-2.7797 -8.04694,-0.26291 -10.75683,-0.0253 -11.40666,1 -0.98902,1.56054 -1.19212,21.87553 -0.24342,24.34781 0.55429,1.44447 2.09807,1.62195 11.58414,1.33179 10.8116,-0.3307 10.97839,-0.3726 13.72336,-3.44708 z"
    id="path3777"
    inkscape:connector-curvature="0"
    sodipodi:nodetypes="csccsssccccccccscsccscsccscccccsccsssccssssssccccscccsccsssssssscssscssscccsscsccccssssccssscccscsssscccccscsccccscscsccsccscsscccccsccsc"
  />
  <g style="fill: none" id="g3815" transform="matrix(1.0072247,0,0,1.0072247,142.48699,-124.7667)">
    <path
      id="path3804"
      d="m -119.32549,319.06889 c -0.41719,-0.95022 -0.62577,-1.95839 -0.62577,-3.0245 v -10.18602 h 3.82411 v 9.62977 c 0,1.06611 0.3708,1.97001 1.11247,2.71165 0.74165,0.74168 1.64554,1.11245 2.71164,1.11245 h 6.22286 c 0.88072,0 1.62233,-0.3012 2.22493,-0.90385 0.60261,-0.60262 0.90389,-1.34422 0.90389,-2.22495 v -10.88132 h 3.824111 v 11.54187 c 0,1.92363 -0.683696,3.56913 -2.051111,4.93656 -1.36742,1.36742 -3.01292,2.05111 -4.93659,2.05111 h -6.04903 c -1.59918,0 -3.04769,-0.44034 -4.34558,-1.32106 -1.2747,-0.85752 -2.21335,-2.00473 -2.81593,-3.44171 z m 7.78726,-17.76469 h 3.99793 v 3.99792 h -3.99793 z m 16.234565,10.32507 v -17.72993 h 3.824108 v 17.62564 c 0,0.46353 0.162222,0.85752 0.486704,1.18199 0.324439,0.32438 0.718455,0.48672 1.181998,0.48672 h 1.633937 c 0.324439,0 0.486705,0.17376 0.486705,0.52148 v 3.51122 c 0,0.32436 -0.162262,0.4867 -0.486705,0.4867 h -1.008173 c -1.668703,0 -3.105655,-0.591 -4.310814,-1.773 -1.205202,-1.20514 -1.80776,-2.6421 -1.80776,-4.31082 z m 6.627788,5.59712 v -3.546 c 0,-0.32438 0.162262,-0.4867 0.486704,-0.4867 h 1.112466 c 0.463544,0 0.857558,-0.13903 1.181998,-0.41717 0.34765,-0.27802 0.567839,-0.64892 0.66053,-1.11249 l 0.695291,-3.58075 c 0.231804,-1.27469 0.845956,-2.31763 1.842525,-3.12881 1.019774,-0.83436 2.178611,-1.25151 3.476461,-1.25151 h 1.946995 c 1.575704,0 2.920225,0.5562 4.032693,1.6687 1.112467,1.11246 1.668703,2.45668 1.668703,4.03267 v 2.12065 c 0,0.46353 0.162071,0.85752 0.486704,1.18199 0.324182,0.32438 0.718323,0.48672 1.181998,0.48672 h 1.321054 c 0.32418,0 0.486705,0.16217 0.486705,0.4867 v 3.546 c 0,0.13901 -0.05822,0.25485 -0.173806,0.34754 -0.09301,0.0926 -0.197274,0.13901 -0.312896,0.13901 h -0.660527 c -1.483581,0 -2.688609,-0.49832 -3.615521,-1.4949 -0.718756,0.99658 -1.692168,1.4949 -2.920226,1.4949 h -4.032869 c -1.552808,0 -2.78117,-0.67214 -3.685052,-2.01635 -0.973407,1.34421 -2.259699,2.01635 -3.858871,2.01635 h -0.834355 c -0.324439,0 -0.486704,-0.16219 -0.486704,-0.4867 z m 7.30057,-5.31901 c 0,0.0224 -0.01163,0.0579 -0.03475,0.10426 0,0.0464 0,0.0926 0,0.13901 0,0.25485 0.104299,0.49833 0.312896,0.73009 0.208597,0.20851 0.475144,0.31278 0.799587,0.31278 h 4.901984 v -3.82415 c 0,-0.3707 -0.127763,-0.68367 -0.38241,-0.93865 -0.255085,-0.25486 -0.56797,-0.3824 -0.938646,-0.3824 h -2.816107 c -0.695291,0 -1.124026,0.35913 -1.286292,1.0777 z m 12.322493,5.31901 v -3.51122 c 0,-0.34753 0.162108,-0.52148 0.486704,-0.52148 h 2.989757 c 0.463675,0 0.869116,-0.13903 1.216762,-0.41717 0.34765,-0.27802 0.567966,-0.64892 0.660527,-1.11249 l 1.286292,-6.25761 3.754577,0.66053 -1.042937,5.24943 c -0.02316,0.0926 -0.03475,0.22012 -0.03475,0.38244 0,0.3707 0.150787,0.71844 0.45194,1.04292 0.301161,0.3012 0.683562,0.45195 1.147233,0.45195 h 2.607345 c 0.32463,0 0.486706,0.17376 0.486706,0.52148 v 3.51122 c 0,0.11589 -0.04649,0.23169 -0.139053,0.34754 -0.09256,0.0926 -0.208598,0.13901 -0.347649,0.13901 h -2.642111 c -0.764822,0 -1.506612,-0.20852 -2.224934,-0.62575 -0.764821,-0.39404 -1.263261,-0.86915 -1.494878,-1.42535 -0.32463,0.5562 -0.892147,1.04294 -1.703468,1.4601 -0.787852,0.39403 -1.564408,0.591 -2.329229,0.591 h -2.642111 c -0.324629,0 -0.486705,-0.16219 -0.486705,-0.4867 z m 7.578688,-15.01833 v -3.9979 h 3.997928 v 3.9979 z m -1.807763,0 h -3.997932 v -3.9979 h 3.997932 z m 7.787275,15.50503 c -0.347649,0 -0.521467,-0.16219 -0.521467,-0.4867 v -3.51122 c 0,-0.11589 0.05781,-0.23168 0.173806,-0.34753 0.09256,-0.11588 0.208597,-0.17377 0.34765,-0.17377 h 6.222866 c 2.271433,0 4.044432,-0.67217 5.31899,-2.01635 l 2.329242,-2.4683 c 0.09256,-0.0926 0.150785,-0.13902 0.173805,-0.13902 l -7.300555,-2.19016 c -0.06955,-0.0224 -0.162109,-0.0337 -0.278104,-0.0337 -0.324631,0 -0.567966,0.18536 -0.730057,0.55625 l -1.321069,3.47645 -3.337401,-0.90389 0.903877,-3.19835 c 0.324631,-1.13563 0.938646,-2.01635 1.842528,-2.6421 0.903878,-0.62576 1.90032,-0.93865 2.989756,-0.93865 0.486706,0 0.950377,0.0695 1.390583,0.20851 l 13.836322,4.13701 -1.147233,3.58076 -1.633938,-0.48671 c -0.185539,-0.0464 -0.428906,-0.0695 -0.730057,-0.0695 -0.556234,0 -1.100733,0.26645 -1.633938,0.79956 l -3.997932,3.96316 c -1.923784,1.92367 -4.438136,2.88549 -7.54392,2.88549 z m 5.284224,-22.17984 h 3.997932 v 3.99796 h -3.997932 z m 20.531551,16.09602 v -17.72993 h 3.824107 v 17.62564 c 0,0.46353 0.16252,0.85752 0.486706,1.18199 0.32463,0.32438 0.718759,0.48672 1.181997,0.48672 h 1.633937 c 0.324631,0 0.486707,0.17376 0.486707,0.52148 v 3.51122 c 0,0.32436 -0.162072,0.4867 -0.486707,0.4867 h -1.008176 c -1.668698,0 -3.105347,-0.591 -4.310812,-1.773 -1.205028,-1.20514 -1.807759,-2.6421 -1.807759,-4.31082 z m 6.627875,2.0859 c 0,-0.13901 0.05822,-0.25486 0.173805,-0.34753 0.09301,-0.11588 0.197275,-0.17377 0.312897,-0.17377 h 1.599173 c 0.463671,0 0.857815,-0.17377 1.181997,-0.5215 0.32463,-0.34754 0.486702,-0.75321 0.486702,-1.21675 v -6.18811 h 3.82411 v 6.22286 c 0,0.46354 0.16252,0.86911 0.486702,1.21676 0.324631,0.32437 0.718761,0.4867 1.181998,0.4867 h 1.008176 c 0.463671,0 0.869116,-0.13901 1.216761,-0.41716 0.34765,-0.27802 0.567966,-0.64891 0.660527,-1.11249 l 1.2862929,-6.29237 3.7545764,0.6953 -1.0429368,5.21467 c -0.023164,0.0926 -0.034753,0.2201 -0.034753,0.3824 0,0.37071 0.1507867,0.71847 0.4519413,1.04295 0.3015719,0.32437 0.6839902,0.4867 1.1472316,0.4867 h 2.5725813 v -8.86497 h 3.8241062 v 9.14311 c 0,1.18197 -0.4171709,2.19017 -1.2515223,3.02452 -0.8108878,0.81118 -1.8077638,1.21675 -2.9897603,1.21675 h -2.1554045 c -1.622204,0 -2.8737304,-0.6953 -3.7545805,-2.08586 -0.9964383,1.39056 -2.3405273,2.08586 -4.0326933,2.08586 -1.761264,0 -3.174882,-0.68368 -4.241288,-2.0511 -1.088999,1.36742 -2.51435,2.0511 -4.276047,2.0511 h -0.903878 c -0.324181,0 -0.486706,-0.16219 -0.486706,-0.4867 z M 8.867301,313.43715 C 8.496632,312.6028 8.311069,311.68727 8.311069,310.69073 v -6.39669 h 3.824108 v 6.01427 c 0,0.81117 0.278104,1.49489 0.834352,2.0511 0.556231,0.55624 1.240226,0.83435 2.051114,0.83435 h 14.253491 c 0.463675,0 0.85782,-0.16219 1.181998,-0.4867 0.324629,-0.32438 0.486705,-0.71847 0.486705,-1.182 v -7.23102 h 3.824114 v 7.23102 c 0,1.71508 -0.61404,3.17518 -1.842531,4.38035 -1.205027,1.20517 -2.665144,1.80776 -4.380343,1.80776 H 15.333523 c -1.436648,0 -2.734671,-0.39403 -3.893638,-1.18201 -1.158533,-0.78797 -2.016347,-1.81934 -2.572584,-3.09405 z m 10.67274,12.41094 v -3.99792 h 3.997932 v 3.99792 z m 11.74175,-2.85068 5.006107,-1.63394 c 0.880417,-0.3012 1.575702,-0.82278 2.085882,-1.5644 0.532754,-0.74168 0.799583,-1.56442 0.799583,-2.46832 v -12.02856 h 3.824101 v 11.64616 c 0,1.83093 -0.521467,3.46484 -1.564401,4.90182 -1.042934,1.4601 -2.433517,2.49143 -4.17175,3.09405 l -4.79753,1.63392 z m 15.901776,-14.42732 h 3.267867 v 3.82411 c 0,0.23169 0.08127,0.42877 0.243351,0.591 0.16253,0.13901 0.347649,0.20852 0.556247,0.20852 h 5.736151 c 0.83435,0 1.48358,-0.37071 1.946816,-1.1125 0.208598,-0.3707 0.312897,-0.74162 0.312897,-1.11245 0,-0.3707 -0.104258,-0.73005 -0.312897,-1.0777 l -4.310801,-7.68301 3.233101,-2.12065 4.623698,8.20446 c 0.556233,0.92706 0.83435,1.91205 0.83435,2.955 0,1.182 -0.301157,2.28288 -0.903882,3.30266 -0.556234,0.95023 -1.321051,1.71504 -2.294466,2.29446 -0.949937,0.57938 -2.00461,0.8691 -3.163583,0.8691 h -5.179917 c -1.251532,0 -2.329233,-0.45195 -3.233115,-1.3558 -0.903883,-0.9039 -1.355817,-1.99319 -1.355817,-3.2679 z m 23.391805,-0.34754 h 3.789348 v 8.58686 c 0,1.06609 0.370663,1.96998 1.112467,2.71166 0.764817,0.76481 1.691727,1.14721 2.781166,1.14721 h 6.848632 c 0.787844,0 1.460116,-0.27804 2.016349,-0.83435 0.556234,-0.53309 0.83435,-1.15884 0.83435,-1.8773 v -0.17378 l -0.03475,-0.9386 -8.586865,-2.05115 V 311.56 c 0,-1.78459 0.625766,-3.36055 1.877285,-4.72797 1.251531,-1.36743 2.746414,-2.16703 4.484646,-2.39876 l 1.772985,-0.27802 c 0.417182,-0.0464 0.741367,-0.0695 0.973416,-0.0695 0.973415,0 1.91205,0.19693 2.815933,0.591 1.228067,0.55621 2.190167,1.37897 2.885465,2.46826 0,0.13902 0.417182,0.78802 1.251532,1.94684 l 0.278103,0.41716 c 0.04611,0.0695 0.219886,0.34754 0.521466,0.83436 0.32418,0.46352 0.56753,0.7996 0.73005,1.00819 l 0.27812,0.45191 5.14515,-5.59707 c 1.52965,-1.6687 3.4417,-2.50305 5.73616,-2.50305 h 2.15542 c 1.55267,0 2.88546,0.56782 3.99793,1.70345 1.13549,1.11245 1.70347,2.44514 1.70347,3.99791 v 1.91206 c 0,0.4867 0.15036,0.92706 0.45193,1.32105 0.32419,0.37071 0.71833,0.55625 1.182,0.55625 h 1.25153 c 0.34765,0 0.52148,0.16219 0.52148,0.4867 v 3.546 c 0,0.32437 -0.17384,0.4867 -0.52148,0.4867 h -0.62575 c -1.64567,0 -3.03626,-0.56782 -4.17176,-1.70345 -1.182,1.13563 -2.61908,1.70345 -4.31082,1.70345 h -10.1165 c -1.20546,0 -2.21364,-0.27802 -3.02452,-0.83435 -0.788289,-0.55625 -1.599174,-1.47172 -2.433524,-2.7464 l -2.607349,-3.99795 c -0.788283,-1.18201 -1.877284,-1.77301 -3.267868,-1.77301 -0.255089,0 -0.451948,0.0109 -0.590999,0.0337 l -2.085882,0.31277 c -0.695285,0.11589 -1.286285,0.44033 -1.772999,0.9734 -0.46366,0.53309 -0.695285,1.14722 -0.695285,1.84252 v 0.31279 l 5.562333,1.14724 c 0.903883,0.18536 1.633948,0.63737 2.190181,1.35581 0.57926,0.71846 0.869116,1.55281 0.869116,2.50305 v 1.21675 c 0,2.01636 -0.590999,3.70823 -1.772999,5.07566 -1.158972,1.36743 -2.688607,2.0511 -4.588931,2.0511 h -7.02245 c -2.155414,0 -3.997932,-0.7648 -5.527581,-2.29445 -1.506607,-1.50649 -2.259699,-3.33742 -2.259699,-5.49282 z m 33.895508,1.14722 -3.58076,3.82414 h 9.56028 c 0.46323,0 0.85737,-0.16219 1.18199,-0.48674 0.32418,-0.32437 0.48671,-0.71844 0.48671,-1.18196 v -1.80779 c 0,-0.46354 -0.16252,-0.85753 -0.48671,-1.182 -0.32463,-0.32438 -0.71876,-0.4867 -1.18199,-0.4867 h -2.955 c -1.13593,0 -2.1441,0.44031 -3.02452,1.32105 z m 13.87935,4.34559 c 0,-0.13901 0.0577,-0.25486 0.1738,-0.34754 0.0926,-0.11589 0.19686,-0.17376 0.3129,-0.17376 h 1.84251 c 0.46368,0 0.85738,-0.16219 1.182,-0.4867 0.32463,-0.32438 0.4867,-0.71848 0.4867,-1.182 v -5.70145 h 3.82412 v 4.0675 c 0,0.23168 0.0109,0.44032 0.0348,0.62575 0.0231,0.18536 0.0465,0.33595 0.0695,0.45195 0.0465,0.0926 0.0925,0.17376 0.13905,0.24327 0.0465,0.0464 0.0813,0.0811 0.10426,0.10426 l 0.0347,0.0695 4.79751,-5.17996 c 1.52965,-1.6687 3.45344,-2.50305 5.77094,-2.50305 h 2.12063 c 1.57614,0 2.92023,0.55625 4.0327,1.6687 1.13549,1.1125 1.70346,2.45669 1.70346,4.03272 v 2.19015 c 0,0.44036 0.16208,0.82276 0.48671,1.14725 0.32463,0.30119 0.71832,0.45194 1.18199,0.45194 h 1.32106 c 0.13905,0 0.25508,0.0579 0.34764,0.17377 0.0926,0.0926 0.13907,0.19694 0.13907,0.31278 v 3.51122 c 0,0.34753 -0.16208,0.52146 -0.48671,0.52146 h -0.69529 c -1.73823,0 -3.14055,-0.68369 -4.20652,-2.05112 -1.1355,1.36743 -2.57259,2.05112 -4.31081,2.05112 h -10.25557 c -1.78473,0 -3.19834,-0.68369 -4.24128,-2.05112 -1.06597,1.36743 -2.49132,2.05112 -4.27605,2.05112 h -1.14722 c -0.32463,0 -0.4867,-0.16219 -0.4867,-0.4867 z m 11.61138,-0.52145 h 9.5255 c 0.46367,0 0.85739,-0.16219 1.182,-0.48674 0.32463,-0.34754 0.4867,-0.75319 0.4867,-1.21676 v -1.77299 c 0,-0.46354 -0.17381,-0.85753 -0.52147,-1.182 -0.32462,-0.32438 -0.71833,-0.4867 -1.182,-0.4867 h -2.92023 c -1.20503,0 -2.2132,0.44031 -3.02452,1.32105 z m 17.51745,4.03267 v -3.51122 c 0,-0.11589 0.0465,-0.23169 0.13905,-0.34754 0.0926,-0.11589 0.19687,-0.17376 0.3129,-0.17376 h 6.29239 c 2.27144,0 4.04443,-0.67214 5.31899,-2.01635 l 2.32923,-2.46831 c 0.0925,-0.0926 0.15079,-0.13901 0.1738,-0.13901 l -7.30055,-2.1902 c -0.0695,-0.0224 -0.16208,-0.0337 -0.27812,-0.0337 -0.32462,0 -0.56795,0.18535 -0.73005,0.55624 l -1.32106,3.47645 -3.3374,-0.90389 0.90387,-3.19835 c 0.32463,-1.13563 0.93865,-2.01635 1.84253,-2.6421 0.90388,-0.62577 1.90032,-0.93865 2.98975,-0.93865 0.48671,0 0.95037,0.0695 1.3906,0.20851 l 13.83631,4.137 -1.14723,3.58077 -1.63395,-0.4867 c -0.2781,-0.0695 -0.50973,-0.10426 -0.69528,-0.10426 -0.34765,0 -0.6953,0.10426 -1.04294,0.31277 v 1.182 c 0,0.46354 0.16211,0.85753 0.4867,1.18201 0.32462,0.32437 0.71833,0.4867 1.182,0.4867 h 4.6237 c 0.32462,0 0.4867,0.16218 0.4867,0.4867 v 3.546 c 0,0.32436 -0.16208,0.4867 -0.4867,0.4867 h -3.99793 c -1.36756,0 -2.53783,-0.39402 -3.51123,-1.182 -0.97342,-0.78798 -1.64568,-1.81934 -2.01635,-3.09405 l -1.39059,1.3906 c -1.92379,1.92364 -4.43814,2.88545 -7.54391,2.88545 h -5.35377 c -0.34764,0 -0.52146,-0.16219 -0.52146,-0.4867 z m 9.80363,-17.6952 h -3.99794 v -3.99794 h 3.99794 z m 13.99535,14.18398 c 0,-0.34754 0.16212,-0.52149 0.48672,-0.52149 h 5.90999 c 0.46323,0 0.85737,-0.16219 1.182,-0.4867 0.32418,-0.34754 0.4867,-0.75322 0.4867,-1.21676 v -7.19626 h 3.82411 v 7.19626 c 0,1.71509 -0.61446,3.18674 -1.84253,4.4151 -1.20546,1.20518 -2.66558,1.80777 -4.38033,1.80777 h -5.17994 c -0.13905,0 -0.25509,-0.0464 -0.34765,-0.13902 -0.093,-0.11589 -0.13905,-0.23168 -0.13905,-0.34753 z m 11.88952,-12.58481 h -3.99793 v -3.99792 h 3.99793 z m -9.80364,-3.99792 h 3.99794 v 3.99792 h -3.99794 z m 17.08813,25.30865 c 0,-1.34422 0.2781,-2.59576 0.83435,-3.7546 0.55623,-1.15883 1.35582,-2.10903 2.39875,-2.8507 l 2.364,-1.80776 -4.38033,-2.98975 v -4.86707 c 0,-1.11245 0.31289,-1.99317 0.93863,-2.6421 0.64879,-0.64893 1.52965,-0.9734 2.64212,-0.9734 h 6.57051 c 1.46012,0 2.69991,0.52145 3.71982,1.5644 1.04293,1.04295 1.5644,2.30608 1.5644,3.78935 v 0.86912 c 0,1.39059 -0.55624,2.50305 -1.6687,3.3374 l -1.35582,0.93865 c 0.30116,0.0926 0.82261,0.13901 1.5644,0.13901 h 4.44988 c 0.32462,0 0.4867,0.18536 0.4867,0.55624 v 3.51122 c 0,0.3012 -0.16208,0.45195 -0.4867,0.45195 h -4.48464 c -2.13236,0 -4.18348,-0.47511 -6.15334,-1.42535 l -2.98975,2.12065 c -1.20504,0.83435 -1.80776,2.07428 -1.80776,3.71981 0,1.36742 0.47497,2.52622 1.42535,3.47645 0.97341,0.95024 2.1554,1.42535 3.54598,1.42535 h 9.00405 v 4.51942 h -8.96928 c -2.54954,0 -4.72799,-0.89228 -6.53575,-2.6769 -1.78473,-1.78459 -2.67687,-3.92841 -2.67687,-6.43146 z m 11.36803,-15.50503 h -6.32716 v 1.73822 l 4.24128,2.6421 3.61553,-2.32921 v -0.62576 c 0,-0.39402 -0.15079,-0.73005 -0.45195,-1.00818 -0.2781,-0.27804 -0.63749,-0.41717 -1.0777,-0.41717 z m 8.30874,10.77703 c -0.34765,0 -0.52147,-0.16219 -0.52147,-0.4867 v -3.51122 c 0,-0.11589 0.0579,-0.23169 0.17382,-0.34754 0.0925,-0.11589 0.20859,-0.17376 0.34765,-0.17376 h 6.22286 c 2.27143,0 4.04443,-0.67218 5.31898,-2.01635 l 2.32924,-2.46831 c 0.0925,-0.0926 0.15079,-0.13901 0.1738,-0.13901 l -7.30054,-2.1902 c -0.0695,-0.0224 -0.16208,-0.0337 -0.2781,-0.0337 -0.32464,0 -0.56797,0.18535 -0.73007,0.55624 l -1.32106,3.47645 -3.3374,-0.90389 0.90388,-3.19835 c 0.32462,-1.13563 0.93864,-2.01635 1.84252,-2.6421 0.90388,-0.62577 1.90032,-0.93865 2.98976,-0.93865 0.48671,0 0.95038,0.0695 1.39059,0.20851 l 13.83631,4.137 -1.14723,3.58077 -1.63393,-0.4867 c -0.18555,-0.0464 -0.42891,-0.0695 -0.73007,-0.0695 -0.55623,0 -1.10073,0.26645 -1.63393,0.79956 l -3.99794,3.96315 c -1.92378,1.92368 -4.43812,2.88551 -7.54391,2.88551 z m 9.59504,8.20446 v -3.99796 h 3.99793 v 3.99796 z m 8.94189,-2.95501 5.00611,-1.63395 c 0.88084,-0.27802 1.57614,-0.78796 2.08587,-1.5296 0.53321,-0.74169 0.7996,-1.57604 0.7996,-2.50305 v -12.02858 h 3.8241 v 6.50097 c 0,0.39403 0.16252,0.73005 0.4867,1.00819 0.34765,0.27804 0.74179,0.41716 1.182,0.41716 h 2.53782 c 0.32463,0 0.48671,0.16218 0.48671,0.4867 v 3.54601 c 0,0.32436 -0.16212,0.4867 -0.48671,0.4867 h -1.91205 c -1.08901,0 -1.85382,-0.35913 -2.29447,-1.0777 v 0.62575 c 0,1.73825 -0.54449,3.30265 -1.63393,4.69325 -1.06598,1.41373 -2.43354,2.39875 -4.10224,2.95497 l -4.79751,1.63394 z m 15.43463,-5.7709 v -3.54601 c 0,-0.32437 0.16207,-0.48671 0.4867,-0.48671 h 1.11247 c 0.46367,0 0.85738,-0.13901 1.182,-0.41719 0.34765,-0.27802 0.56796,-0.64892 0.66052,-1.11245 l 0.6953,-3.58075 c 0.23161,-1.27469 0.84609,-2.31763 1.8425,-3.12882 1.01994,-0.83435 2.17847,-1.25155 3.47647,-1.25155 h 1.94684 c 1.57614,0 2.9202,0.55625 4.0327,1.6687 1.11247,1.1125 1.66871,2.45673 1.66871,4.03272 v 4.06745 c 0,1.182 -0.41719,2.19019 -1.25154,3.02454 -0.81134,0.81119 -1.79603,1.21677 -2.95502,1.21677 h -4.03265 c -1.57618,0 -2.80422,-0.66055 -3.68507,-1.9816 -0.95038,1.32105 -2.23667,1.9816 -3.85888,1.9816 h -0.83435 c -0.32463,0 -0.4867,-0.16219 -0.4867,-0.4867 z m 7.30056,-5.31901 c 0,0.0224 -0.0109,0.0579 -0.0337,0.10425 0,0.0464 0,0.0926 0,0.13903 0,0.25486 0.10425,0.49832 0.31278,0.73005 0.20853,0.20851 0.47498,0.31277 0.79957,0.31277 h 4.90185 v -3.8241 c 0,-0.3707 -0.12738,-0.68368 -0.38245,-0.93865 -0.25524,-0.25485 -0.56794,-0.3824 -0.93865,-0.3824 h -2.81591 c -0.6953,0 -1.12418,0.35912 -1.2863,1.0777 z"
      inkscape:connector-curvature="0"
      style="fill: #333333; stroke-width: 4.34557724"
    />
  </g>
</svg>
