<svg xmlns="http://www.w3.org/2000/svg" width="329.032" height="98.866" viewBox="0 0 329.032 98.866">
  <g id="logo-subtitle" transform="translate(-621 -480.88)">
    <g id="nasbino" transform="translate(0.032)">
      <path id="Path_1" data-name="Path 1" d="M4.968-2.016v-42.12a6.132,6.132,0,0,1,1.8-4.392A5.943,5.943,0,0,1,11.232-50.4h2.376a6.662,6.662,0,0,1,1.872.324,4.747,4.747,0,0,1,2.232,1.908q4.248,6.624,7.632,11.952,2.088,3.24,3.276,5.148t2.268,3.528q1.08,1.62,1.8,2.772t.864,1.368q0,.144.288.144a.318.318,0,0,0,.36-.36v-20.52a5.778,5.778,0,0,1,1.944-4.536A6.436,6.436,0,0,1,40.536-50.4h4.608a1.754,1.754,0,0,1,1.3.5,2.194,2.194,0,0,1,.5,1.368v46.44a2.109,2.109,0,0,1-.5,1.3,1.791,1.791,0,0,1-1.3.576H37.008A2.737,2.737,0,0,1,34.56-1.584q-4.32-6.624-7.776-11.88Q24.7-16.632,23.472-18.54t-2.3-3.528q-1.08-1.62-1.8-2.736T18.5-26.136a.59.59,0,0,0-.36-.216.318.318,0,0,0-.36.36V-2.016a1.644,1.644,0,0,1-.576,1.3,1.917,1.917,0,0,1-1.3.5H6.768A1.72,1.72,0,0,1,5.544-.792,1.72,1.72,0,0,1,4.968-2.016ZM52.92-.432a1.838,1.838,0,0,1-.432-1.08,1.788,1.788,0,0,1,.072-.648L69.264-48.1a2.886,2.886,0,0,1,2.88-2.088H83.3a2.886,2.886,0,0,1,2.88,2.088l16.7,45.936a1.788,1.788,0,0,1,.072.648,1.446,1.446,0,0,1-.468,1.044A1.446,1.446,0,0,1,101.448,0H92.16a2.417,2.417,0,0,1-2.448-1.584L85.968-11.736a41.646,41.646,0,0,1-5.256,1.656,48.167,48.167,0,0,1-5.148.972q-2.484.324-4.644.432t-3.744.108H65.448a5.964,5.964,0,0,1-1.08-.072,2.911,2.911,0,0,1,2.2,1.4,3.03,3.03,0,0,1,.18,2.916L65.736-1.584A2.417,2.417,0,0,1,63.288,0H54A1.838,1.838,0,0,1,52.92-.432ZM71.208-18.864q2.016-.144,4.176-.5a38.4,38.4,0,0,0,3.924-.828,17.807,17.807,0,0,0,3.924-1.548l-5.544-15.84Zm78.264,3.6a13.247,13.247,0,0,1-2.016,7.452,15.335,15.335,0,0,1-5.184,4.9,23.894,23.894,0,0,1-7.056,2.664,36.255,36.255,0,0,1-7.56.828A44.729,44.729,0,0,1,122.4.252a26.042,26.042,0,0,1-5.292-1.188A23.321,23.321,0,0,1,112.284-3.2a13.635,13.635,0,0,1-3.852-3.564,11.722,11.722,0,0,1-2.664-7.128,1.465,1.465,0,0,1,.432-1.08,1.915,1.915,0,0,1,1.152-.432h9.5a3.161,3.161,0,0,1,1.476.288,3.81,3.81,0,0,1,1.116,1.008,6.678,6.678,0,0,0,3.492,3.132,13.257,13.257,0,0,0,4.716.828,18.968,18.968,0,0,0,2.448-.18,11.392,11.392,0,0,0,2.592-.648,5.879,5.879,0,0,0,2.088-1.332,3.114,3.114,0,0,0,.864-2.3,3,3,0,0,0-1.512-2.772,15.51,15.51,0,0,0-3.024-1.4q-1.152-.36-2.844-.792t-3.924-.936a54.448,54.448,0,0,1-6.408-1.656,20.033,20.033,0,0,1-5.508-2.736,13.3,13.3,0,0,1-3.888-4.356,13.149,13.149,0,0,1-1.476-6.516A12.908,12.908,0,0,1,108.9-42.8a15.111,15.111,0,0,1,4.716-4.752,20.524,20.524,0,0,1,6.444-2.664,31.254,31.254,0,0,1,7.092-.828,30,30,0,0,1,5,.432,24.6,24.6,0,0,1,4.932,1.368,21.213,21.213,0,0,1,4.428,2.376,17.1,17.1,0,0,1,3.636,3.456,11.543,11.543,0,0,1,2.592,6.408,1.915,1.915,0,0,1-.432,1.152,1.465,1.465,0,0,1-1.08.432H136.224a2.773,2.773,0,0,1-2.448-1.3,3.678,3.678,0,0,0-1.008-1.692,5.371,5.371,0,0,0-1.692-1.08,9.8,9.8,0,0,0-1.98-.576,11.058,11.058,0,0,0-1.944-.18,17.15,17.15,0,0,0-2.2.144,6,6,0,0,0-2.016.612,4.361,4.361,0,0,0-1.512,1.3,3.481,3.481,0,0,0-.612,2.124,3.7,3.7,0,0,0,2.16,3.312,34.093,34.093,0,0,0,7.992,2.376,64.846,64.846,0,0,1,6.8,1.512,21.924,21.924,0,0,1,5.94,2.592A12.955,12.955,0,0,1,147.888-22,12.882,12.882,0,0,1,149.472-15.264ZM156.6-2.016v-42.12a5.921,5.921,0,0,1,.612-2.808,6.522,6.522,0,0,1,1.548-1.944,6.014,6.014,0,0,1,2.052-1.152,6.727,6.727,0,0,1,2.052-.36h17.712a33.422,33.422,0,0,1,6.912.684,15.9,15.9,0,0,1,5.688,2.34,11.807,11.807,0,0,1,3.888,4.428,14.8,14.8,0,0,1,1.44,6.876,10.516,10.516,0,0,1-1.548,5.616,11.368,11.368,0,0,1-4.284,4.032A10.123,10.123,0,0,1,197.748-22a12.709,12.709,0,0,1,1.836,6.516,15.341,15.341,0,0,1-1.476,7.056,13.166,13.166,0,0,1-4,4.716,16.625,16.625,0,0,1-5.868,2.664,29.452,29.452,0,0,1-7.092.828H158.4a1.727,1.727,0,0,1-1.26-.54A1.727,1.727,0,0,1,156.6-2.016Zm22.464-28.512a5.771,5.771,0,0,0,3.96-1.332,4.861,4.861,0,0,0,1.512-3.852,4.587,4.587,0,0,0-1.548-3.78,6.014,6.014,0,0,0-3.924-1.26H166.1a3.763,3.763,0,0,1,2.808,1.188,3.7,3.7,0,0,1,1.152,2.628v4.32a2.234,2.234,0,0,0,.576,1.368,1.918,1.918,0,0,0,1.584.72Zm.648,20.592a6.1,6.1,0,0,0,4.212-1.44,5.2,5.2,0,0,0,1.62-4.1,5.4,5.4,0,0,0-1.656-4.14,5.876,5.876,0,0,0-4.176-1.548H166.1a3.763,3.763,0,0,1,2.808,1.188,3.7,3.7,0,0,1,1.152,2.628V-12.1a2.394,2.394,0,0,0,.54,1.44,1.9,1.9,0,0,0,1.62.72ZM207.5-1.8V-43.92a5.912,5.912,0,0,1,1.872-4.5,6.2,6.2,0,0,1,4.392-1.764h5.76a1.613,1.613,0,0,1,1.3.5,1.754,1.754,0,0,1,.5,1.3V-1.8a1.754,1.754,0,0,1-.5,1.3,1.613,1.613,0,0,1-1.3.5H209.3a1.754,1.754,0,0,1-1.3-.5A1.754,1.754,0,0,1,207.5-1.8Zm23.76-.216v-42.12a6.132,6.132,0,0,1,1.8-4.392,5.943,5.943,0,0,1,4.464-1.872h2.3a6.841,6.841,0,0,1,1.944.324,4.747,4.747,0,0,1,2.232,1.908q4.248,6.624,7.632,11.952,2.088,3.24,3.276,5.148t2.232,3.528q1.044,1.62,1.764,2.772t.864,1.368a.488.488,0,0,0,.36.144.318.318,0,0,0,.36-.36v-20.52a6.034,6.034,0,0,1,.54-2.592,6.129,6.129,0,0,1,1.4-1.944,6.664,6.664,0,0,1,2.016-1.26,6.081,6.081,0,0,1,2.3-.468h4.68a1.524,1.524,0,0,1,1.224.5,1.849,1.849,0,0,1,.5,1.368v46.44a1.754,1.754,0,0,1-.5,1.3,1.44,1.44,0,0,1-1.224.576H263.3a2.54,2.54,0,0,1-2.448-1.368q-4.32-6.624-7.776-11.88-2.16-3.168-3.384-5.076t-2.268-3.528L245.664-24.8q-.72-1.116-.864-1.332a.59.59,0,0,0-.36-.216q-.432,0-.432.36V-2.016a1.728,1.728,0,0,1-.5,1.332,1.931,1.931,0,0,1-1.368.468h-9.072a1.727,1.727,0,0,1-1.26-.54A1.727,1.727,0,0,1,231.264-2.016ZM303.912.72C297.1.72,290.72.064,286.784-3.248s-4.024-9.184-4.264-15.616q-.072-2.016-.072-6.192t.072-6.264c.192-6.336.292-12.22,4.3-15.652s10.372-4.148,17.092-4.148c6.672,0,13.012.716,17.02,4.148s4.108,9.316,4.3,15.652q.144,4.176.144,6.264,0,2.16-.144,6.192c-.24,6.432-.316,12.3-4.228,15.616S310.728.72,303.912.72Zm0-10.8c2.5,0,5.488.244,6.976-1.268s1.28-4.828,1.376-7.948q.144-4.176.144-5.976t-.144-5.832c-.1-3.12.112-6.436-1.376-7.948s-4.48-1.268-6.976-1.268c-2.544,0-5.56-.244-7.048,1.268s-1.28,4.828-1.376,7.948q-.072,2.016-.072,5.832,0,3.888.072,5.976c.1,3.12-.112,6.436,1.376,7.948S301.368-10.08,303.912-10.08Z" transform="translate(616 532)" fill="#333"/>
      <circle id="Ellipse_1" data-name="Ellipse 1" cx="6" cy="6" r="6" transform="translate(914 508)" fill="#333"/>
      <path id="Path_2" data-name="Path 2" d="M1.321,0A1.281,1.281,0,0,1,2.641,1.292l-.082.457-.209.459L2.1,3.22l.537,1.11V6.461A1.307,1.307,0,0,1,1.321,7.754,1.307,1.307,0,0,1,0,6.461V4.33L.494,3.22l-.229-1.1L.071,1.749,0,1.292A1.307,1.307,0,0,1,1.321,0Z" transform="translate(918.679 510.418)" fill="#fff"/>
      <g id="Path_3" data-name="Path 3" transform="translate(916 499)" fill="#333">
        <path d="M 29.5 5.140259265899658 L 2.5 5.140259265899658 C 1.397199988365173 5.140259265899658 0.5 4.099449157714844 0.5 2.820129156112671 C 0.5 1.540809154510498 1.397199988365173 0.4999991655349731 2.5 0.4999991655349731 L 29.5 0.4999991655349731 C 30.04701042175293 0.4999991655349731 31.09223937988281 0.7633591294288635 32.03160858154297 1.266709208488464 C 32.95106887817383 1.759399175643921 33.5 2.340119123458862 33.5 2.820129156112671 C 33.5 3.300139188766479 32.95106887817383 3.880859136581421 32.03160858154297 4.373548984527588 C 31.09223937988281 4.876899242401123 30.04701042175293 5.140259265899658 29.5 5.140259265899658 Z" stroke="none"/>
        <path d="M 2.5 0.9999990463256836 C 1.672901153564453 0.9999990463256836 1 1.816509246826172 1 2.820129156112671 C 1 3.82374906539917 1.672901153564453 4.640259265899658 2.5 4.640259265899658 L 29.5 4.640259265899658 C 29.97277069091797 4.640259265899658 30.93794059753418 4.392319202423096 31.79545974731445 3.932829141616821 C 32.6792106628418 3.459269046783447 33 3.007949113845825 33 2.820129156112671 C 33 2.632309198379517 32.6792106628418 2.180989265441895 31.79545974731445 1.707429170608521 C 30.93794059753418 1.247939109802246 29.97277069091797 0.9999990463256836 29.5 0.9999990463256836 L 2.5 0.9999990463256836 M 2.5 -9.5367431640625e-07 L 29.5 -9.5367431640625e-07 C 30.88071060180664 -9.5367431640625e-07 34 1.262619018554688 34 2.820129156112671 C 34 4.377639293670654 30.88071060180664 5.640259265899658 29.5 5.640259265899658 L 2.5 5.640259265899658 C 1.119289398193359 5.640259265899658 0 4.377639293670654 0 2.820129156112671 C 0 1.262619018554688 1.119289398193359 -9.5367431640625e-07 2.5 -9.5367431640625e-07 Z" stroke="none" fill="#fff"/>
      </g>
    </g>
    <g id="Group_3" data-name="Group 3">
      <path id="Path_5" data-name="Path 5" d="M1.62-7.1H4.158v2.97a.581.581,0,0,0,.189.446.617.617,0,0,0,.432.175H9.234a1.692,1.692,0,0,0,1.512-.864,1.749,1.749,0,0,0,.243-.864,1.606,1.606,0,0,0-.243-.837L7.4-12.042l2.511-1.647L13.5-7.317a4.388,4.388,0,0,1,.648,2.3,4.955,4.955,0,0,1-.7,2.565A5.007,5.007,0,0,1,11.678-.675,4.7,4.7,0,0,1,9.207,0H5.184A3.428,3.428,0,0,1,2.673-1.053,3.459,3.459,0,0,1,1.62-3.591ZM19.791-.945V-7.128h2.97v5.751A2.835,2.835,0,0,0,23.652.716a2.9,2.9,0,0,0,2.106.877h5.805A2.165,2.165,0,0,0,33.156.945,2.165,2.165,0,0,0,33.8-.648v-.7l-7.56-1.782V-6.291A5.405,5.405,0,0,1,27.621-10,5.425,5.425,0,0,1,31.1-11.826l3.78-.486.486,3.24-4.32.567a2.176,2.176,0,0,0-1.391.729,2.121,2.121,0,0,0-.553,1.458v.783L34.4-4.347a3.028,3.028,0,0,1,1.715,1.053,2.937,2.937,0,0,1,.661,1.917v.945a5.356,5.356,0,0,1-1.607,3.915A5.321,5.321,0,0,1,31.239,5.1h-5.4A5.829,5.829,0,0,1,21.56,3.335,5.829,5.829,0,0,1,19.791-.945Zm20.088-3.78V-18.5h2.97V-4.806a1.25,1.25,0,0,0,.378.918,1.25,1.25,0,0,0,.918.378h1.269q.378,0,.378.405V-.378A.334.334,0,0,1,45.414,0h-.783a4.593,4.593,0,0,1-3.348-1.391A4.527,4.527,0,0,1,39.879-4.725ZM45.036-.378V-3.132a.334.334,0,0,1,.378-.378H47.9q-.459-.3-.243-1.377l.054-.459.378-1.836a4.286,4.286,0,0,1,1.472-2.444,4.025,4.025,0,0,1,2.66-.958h1.107a4.2,4.2,0,0,1,3.078,1.3A4.2,4.2,0,0,1,57.7-6.21v1.4a4.161,4.161,0,0,1-.243,1.3h4.1V-7.4a1.6,1.6,0,0,0-1.188-1.647l-9.666-3,.81-3.078L60.885-12.2a4.958,4.958,0,0,1,2.632,1.863A5.071,5.071,0,0,1,64.53-7.263V-3.4A3.254,3.254,0,0,1,63.518-1,3.321,3.321,0,0,1,61.1,0H56.754V-1.971A2.59,2.59,0,0,1,55.377-.5a4.238,4.238,0,0,1-1.809.5H45.414A.334.334,0,0,1,45.036-.378Zm5.535-4.158a.569.569,0,0,1-.014.095.569.569,0,0,0-.014.095.818.818,0,0,0,.257.567.84.84,0,0,0,.634.27h3.294V-6.48a.96.96,0,0,0-.3-.7.991.991,0,0,0-.729-.3H51.948a1.037,1.037,0,0,0-.675.243.95.95,0,0,0-.351.621ZM67.932-3.321A5.193,5.193,0,0,1,67.5-5.454v-4.968h2.97v4.671a2.165,2.165,0,0,0,.648,1.593,2.165,2.165,0,0,0,1.593.648h11.07a1.25,1.25,0,0,0,.918-.378,1.25,1.25,0,0,0,.378-.918v-5.616h2.97v5.616A4.611,4.611,0,0,1,86.63-1.4,4.678,4.678,0,0,1,83.214,0H72.954A5.256,5.256,0,0,1,69.93-.918,5.525,5.525,0,0,1,67.932-3.321Zm8.289,9.639V3.213h3.1V6.318Zm14.8-11.043V-18.5h2.97V-4.806a1.25,1.25,0,0,0,.378.918,1.25,1.25,0,0,0,.918.378h1.269q.378,0,.378.405V-.378A.334.334,0,0,1,96.552,0h-.783a4.593,4.593,0,0,1-3.348-1.391A4.527,4.527,0,0,1,91.017-4.725Zm5.157,1.62a.389.389,0,0,1,.121-.284.361.361,0,0,1,.257-.122h1.431a1.25,1.25,0,0,0,.918-.378,1.25,1.25,0,0,0,.378-.918V-9.234h2.97v3.159a3.948,3.948,0,0,0,.027.486,1.836,1.836,0,0,0,.068.338.615.615,0,0,0,.094.189q.054.068.081.095l.027.054,3.726-4.023a5.822,5.822,0,0,1,4.482-1.944H112.4a4.312,4.312,0,0,1,3.146,1.3,4.245,4.245,0,0,1,1.31,3.132v1.7a1.175,1.175,0,0,0,.378.878,1.274,1.274,0,0,0,.918.364h1.026a.346.346,0,0,1,.27.122.382.382,0,0,1,.108.257V-.405q0,.405-.378.405h-.54a3.943,3.943,0,0,1-3.267-1.593A4.167,4.167,0,0,1,112.023,0h-7.965a3.924,3.924,0,0,1-3.294-1.593A4,4,0,0,1,97.443,0h-.891a.334.334,0,0,1-.378-.378Zm9.018-.405h7.4a1.228,1.228,0,0,0,.918-.391,1.3,1.3,0,0,0,.378-.932V-6.21a1.228,1.228,0,0,0-.391-.918,1.3,1.3,0,0,0-.932-.378H110.3a3.063,3.063,0,0,0-2.349,1.026Zm13.608.405q0-.4.378-.405h4.59a1.228,1.228,0,0,0,.918-.391,1.3,1.3,0,0,0,.378-.932v-5.589h2.97v5.589a4.655,4.655,0,0,1-1.417,3.416A4.655,4.655,0,0,1,123.2,0h-4.023a.346.346,0,0,1-.27-.122.382.382,0,0,1-.108-.257Zm6.129-9.774v-3.1h3.1v3.1ZM133.7,3.672a6.65,6.65,0,0,1,.648-2.916,5.7,5.7,0,0,1,1.863-2.214l1.836-1.4-3.4-2.322v-3.78a2.8,2.8,0,0,1,.742-2.052,2.727,2.727,0,0,1,2.038-.756h5.1a3.933,3.933,0,0,1,2.9,1.215,4.031,4.031,0,0,1,1.2,2.943v.675a3.079,3.079,0,0,1-1.3,2.592l-1.053.729a4.678,4.678,0,0,0,1.215.108h3.456q.378,0,.378.432V-.351q0,.351-.378.351h-3.483A10.872,10.872,0,0,1,140.7-1.107L138.375.54a3.284,3.284,0,0,0-1.4,2.889,3.651,3.651,0,0,0,1.121,2.7,3.751,3.751,0,0,0,2.74,1.107h6.993v3.51h-6.966A6.919,6.919,0,0,1,135.8,8.667,6.789,6.789,0,0,1,133.7,3.672ZM142.533-8.37h-4.914v1.35l3.294,2.052,2.808-1.809v-.486a1.046,1.046,0,0,0-.337-.783A1.179,1.179,0,0,0,142.533-8.37ZM148.986,0q-.4,0-.4-.378V-3.105a.407.407,0,0,1,.122-.27.371.371,0,0,1,.283-.135h4.833a5.42,5.42,0,0,0,4.131-1.566l1.809-1.917q.108-.108.135-.108l-5.67-1.7a.7.7,0,0,0-.216-.027.609.609,0,0,0-.567.432l-1.026,2.7-2.592-.7.7-2.484a3.613,3.613,0,0,1,1.431-2.052,3.991,3.991,0,0,1,2.322-.729,3.565,3.565,0,0,1,1.08.162L166.1-8.289l-.891,2.781-1.269-.378a2.414,2.414,0,0,0-.567-.054,1.811,1.811,0,0,0-1.269.621L159-2.241A7.924,7.924,0,0,1,153.144,0Zm7.452,6.372V3.267h3.1V6.372Zm9.936-2.3,3.888-1.269A3.072,3.072,0,0,0,171.9,1.62,3.3,3.3,0,0,0,172.5-.324V-9.666h2.97v5.049a.984.984,0,0,0,.392.783,1.377,1.377,0,0,0,.9.324h1.971a.334.334,0,0,1,.378.378V-.378A.334.334,0,0,1,178.74,0h-1.485a1.92,1.92,0,0,1-1.782-.837v.486a5.855,5.855,0,0,1-1.255,3.659,6.573,6.573,0,0,1-3.2,2.282l-3.726,1.269Zm9.018-4.482V-3.159a.334.334,0,0,1,.378-.378h.864a1.415,1.415,0,0,0,.932-.324,1.452,1.452,0,0,0,.5-.864l.54-2.781a3.98,3.98,0,0,1,1.444-2.444,4.13,4.13,0,0,1,2.687-.958h1.512a4.267,4.267,0,0,1,3.132,1.3,4.267,4.267,0,0,1,1.3,3.132v3.159a3.178,3.178,0,0,1-.959,2.336,3.147,3.147,0,0,1-2.308.959h-3.132a3.253,3.253,0,0,1-2.862-1.539,3.5,3.5,0,0,1-3,1.539h-.648A.334.334,0,0,1,175.392-.405Zm5.67-4.131a.371.371,0,0,1-.014.081.444.444,0,0,0-.014.108.793.793,0,0,0,.243.553.818.818,0,0,0,.621.256h3.807v-2.97a.991.991,0,0,0-.3-.729.991.991,0,0,0-.729-.3h-2.187a.946.946,0,0,0-1,.837Z" transform="translate(754 569)" fill="#333"/>
      <path id="Path_4" data-name="Path 4" d="M2.106,1.053A5.779,5.779,0,0,1,1.62-1.3V-9.207H4.59v7.479A2.866,2.866,0,0,0,5.454.378a2.866,2.866,0,0,0,2.106.864h4.833a2.349,2.349,0,0,0,1.728-.7,2.348,2.348,0,0,0,.7-1.728V-9.639h2.97V-.675A5.227,5.227,0,0,1,16.2,3.159a5.227,5.227,0,0,1-3.834,1.593h-4.7A5.869,5.869,0,0,1,4.307,3.74,5.953,5.953,0,0,1,2.106,1.053Zm6.048-13.8h3.105v3.1H8.154ZM20.763-4.725V-18.5h2.97V-4.806a1.25,1.25,0,0,0,.378.918,1.25,1.25,0,0,0,.918.378H26.3q.378,0,.378.405V-.378A.334.334,0,0,1,26.3,0h-.783a4.593,4.593,0,0,1-3.348-1.391A4.527,4.527,0,0,1,20.763-4.725ZM25.92-.378V-3.132A.334.334,0,0,1,26.3-3.51h.864a1.415,1.415,0,0,0,.931-.324,1.452,1.452,0,0,0,.5-.864l.54-2.781a3.98,3.98,0,0,1,1.444-2.444,4.13,4.13,0,0,1,2.687-.958h1.512a4.267,4.267,0,0,1,3.132,1.3,4.267,4.267,0,0,1,1.3,3.132v1.647a1.25,1.25,0,0,0,.378.918,1.25,1.25,0,0,0,.918.378h1.026a.334.334,0,0,1,.378.378V-.378a.346.346,0,0,1-.121.27A.382.382,0,0,1,41.526,0h-.513a3.659,3.659,0,0,1-2.808-1.161A2.652,2.652,0,0,1,35.937,0H32.805a3.281,3.281,0,0,1-2.862-1.566,3.529,3.529,0,0,1-3,1.566H26.3A.334.334,0,0,1,25.92-.378Zm5.67-4.131a.369.369,0,0,1-.014.081.444.444,0,0,0-.014.108.793.793,0,0,0,.243.553.818.818,0,0,0,.621.257h3.807V-6.48a.991.991,0,0,0-.3-.729.991.991,0,0,0-.729-.3H33.021a.946.946,0,0,0-1,.837ZM41.148-.378V-3.105q0-.4.378-.405h2.322a1.468,1.468,0,0,0,.945-.324,1.426,1.426,0,0,0,.513-.864l1-4.86,2.916.513-.81,4.077a1.281,1.281,0,0,0-.027.3,1.129,1.129,0,0,0,.351.8,1.184,1.184,0,0,0,.891.364h2.025q.378,0,.378.405V-.378a.382.382,0,0,1-.108.257.346.346,0,0,1-.27.122H49.6a3.4,3.4,0,0,1-1.728-.486A2.326,2.326,0,0,1,46.71-1.593,3.05,3.05,0,0,1,45.4-.472,4.012,4.012,0,0,1,43.578,0H41.526A.334.334,0,0,1,41.148-.378Zm5.886-11.664v-3.105h3.1v3.105Zm-1.4,0h-3.1v-3.105h3.1ZM51.678,0q-.405,0-.4-.378V-3.105a.407.407,0,0,1,.121-.27.371.371,0,0,1,.284-.135h4.833a5.42,5.42,0,0,0,4.131-1.566l1.809-1.917q.108-.108.135-.108l-5.67-1.7a.7.7,0,0,0-.216-.027.609.609,0,0,0-.567.432L55.107-5.7l-2.592-.7.7-2.484a3.613,3.613,0,0,1,1.431-2.052,3.991,3.991,0,0,1,2.322-.729,3.565,3.565,0,0,1,1.08.162L68.8-8.289l-.891,2.781-1.269-.378a2.414,2.414,0,0,0-.567-.054,1.811,1.811,0,0,0-1.269.621L61.7-2.241A7.924,7.924,0,0,1,55.836,0Zm4.1-17.226h3.1v3.1h-3.1Zm15.957,12.5V-18.5h2.97V-4.806a1.25,1.25,0,0,0,.378.918,1.25,1.25,0,0,0,.918.378h1.269q.378,0,.378.405V-.378A.334.334,0,0,1,77.274,0h-.783a4.593,4.593,0,0,1-3.348-1.391A4.527,4.527,0,0,1,71.739-4.725ZM76.9-3.105a.389.389,0,0,1,.121-.284.361.361,0,0,1,.257-.122h1.242a1.209,1.209,0,0,0,.918-.4,1.341,1.341,0,0,0,.378-.945V-9.666h2.97v4.833a1.3,1.3,0,0,0,.378.932,1.228,1.228,0,0,0,.918.391h.783a1.468,1.468,0,0,0,.945-.324,1.426,1.426,0,0,0,.513-.864l1-4.887,2.916.54-.81,4.05a1.282,1.282,0,0,0-.027.3,1.174,1.174,0,0,0,.351.81,1.163,1.163,0,0,0,.891.378h2V-10.4h2.97v7.1a3.178,3.178,0,0,1-.958,2.336A3.178,3.178,0,0,1,92.313,0H90.639a3.26,3.26,0,0,1-2.916-1.62A3.659,3.659,0,0,1,84.591,0,3.97,3.97,0,0,1,81.3-1.593,4.044,4.044,0,0,1,77.976,0h-.7A.334.334,0,0,1,76.9-.378Zm24.813-.216a5.193,5.193,0,0,1-.432-2.133v-4.968h2.97v4.671a2.165,2.165,0,0,0,.648,1.593,2.165,2.165,0,0,0,1.593.648h11.07a1.25,1.25,0,0,0,.918-.378,1.25,1.25,0,0,0,.378-.918v-5.616h2.97v5.616a4.611,4.611,0,0,1-1.417,3.4A4.678,4.678,0,0,1,116.991,0h-10.26a5.256,5.256,0,0,1-3.024-.918A5.525,5.525,0,0,1,101.709-3.321ZM110,6.318V3.213h3.1V6.318Zm12.1-2.214,3.888-1.269a3.216,3.216,0,0,0,1.633-1.215A3.258,3.258,0,0,0,128.223-.3V-9.639h2.97V-.594a6.377,6.377,0,0,1-1.215,3.821,6.52,6.52,0,0,1-3.24,2.39l-3.726,1.269Z" transform="translate(621 569)" fill="#333"/>
    </g>
  </g>
</svg>
